<?xml version="1.0" encoding="utf-8"?>
<!-- Generator: Adobe Illustrator 23.0.3, SVG Export Plug-In . SVG Version: 6.00 Build 0)  -->
<svg version="1.1" id="_x32_" xmlns="http://www.w3.org/2000/svg" xmlns:xlink="http://www.w3.org/1999/xlink" x="0px" y="0px"
	 viewBox="0 0 512 512" style="enable-background:new 0 0 512 512;" xml:space="preserve">
<style type="text/css">
	.st0{fill:#414141;}
</style>
<g>
	<path class="st0" d="M256.01,357.11c-16.78,0-30.41,13.61-30.41,30.4c0,16.79,13.63,30.4,30.41,30.4s30.4-13.61,30.4-30.4
		C286.4,370.73,272.79,357.11,256.01,357.11z"/>
	<path class="st0" d="M505.1,407.12L300.77,53.21c-9.2-15.94-26.36-25.85-44.78-25.85c-18.41,0-35.54,9.9-44.75,25.85L6.9,407.1
		c-9.2,15.94-9.2,35.75,0,51.69c9.2,15.94,26.36,25.84,44.76,25.84h408.67c18.41,0,35.56-9.9,44.76-25.84
		C514.3,442.86,514.3,423.05,505.1,407.12z M464.46,432.4c-2.95,5.1-8.44,8.27-14.35,8.27H61.88c-5.89,0-11.39-3.16-14.33-8.28
		c-2.96-5.11-2.98-11.45-0.01-16.55L241.66,79.6c2.94-5.1,8.44-8.27,14.35-8.27c5.9,0,11.39,3.17,14.34,8.28l194.12,336.23
		C467.42,420.95,467.42,427.3,464.46,432.4z"/>
	<path class="st0" d="M256.01,152.72c-16.78,0-30.41,13.61-30.41,30.4l11.68,137.49c0,10.35,8.38,18.72,18.73,18.72
		c10.34,0,18.73-8.38,18.73-18.72l11.67-137.49C286.4,166.33,272.79,152.72,256.01,152.72z"/>
</g>
</svg>
